<?xml version="1.0" standalone="no"?>
<!DOCTYPE svg PUBLIC "-//W3C//DTD SVG 20010904//EN" "http://www.w3.org/TR/2001/REC-SVG-20010904/DTD/svg10.dtd">
<svg version="1.0" xmlns="http://www.w3.org/2000/svg" width="206.000000pt" height="206.000000pt"
        viewBox="0 0 206.000000 206.000000" preserveAspectRatio="xMidYMid meet">

        <g transform="translate(0.000000,206.000000) scale(0.100000,-0.100000)" fill="#FEF102" stroke="none">
                <path d="M179 2013 c-3 -32 4 -120 11 -127 16 -16 59 3 66 29 8 31 -13 58 -38
52 -14 -4 -18 1 -18 24 0 16 -4 29 -10 29 -5 0 -10 -3 -11 -7z m57 -77 c7 -29
-1 -46 -22 -46 -9 0 -14 10 -14 28 0 47 25 59 36 18z" />
                <path d="M1735 1969 c-4 -6 -5 -12 -2 -15 2 -3 7 2 10 11 7 17 1 20 -8 4z" />
                <path d="M1766 1958 c1 -13 3 -33 3 -45 1 -13 7 -23 14 -23 10 0 12 11 8 42
-6 42 -30 67 -25 26z" />
                <path d="M1730 1925 c-14 -17 -5 -35 18 -35 14 0 14 2 3 9 -8 5 -11 16 -8 25
8 20 3 20 -13 1z" />
                <path d="M244 1786 c-57 -18 -102 -54 -132 -106 -22 -37 -27 -57 -27 -110 1
-76 25 -130 78 -177 l34 -29 -34 -40 c-104 -123 -94 -305 25 -421 41 -40 130
-83 172 -83 24 0 24 -1 5 -46 -14 -35 -14 -35 9 -32 21 2 30 -8 71 -90 164
-320 544 -450 870 -298 175 82 297 219 355 397 l21 66 50 11 c235 55 317 342
147 514 -39 39 -39 41 5 52 24 6 39 26 18 26 -4 0 2 21 15 47 51 99 18 230
-73 295 -59 43 -157 50 -226 18 -126 -59 -169 -197 -101 -325 13 -25 24 -48
24 -50 0 -2 -20 -15 -43 -29 -24 -14 -56 -42 -72 -62 -32 -42 -65 -123 -65
-160 l0 -25 -29 20 c-37 26 -51 27 -51 1 0 -20 -7 -20 -293 -20 l-293 0 -11
53 c-20 97 -90 186 -174 221 l-31 13 31 22 c19 14 28 27 24 34 -4 7 -6 40 -4
73 5 114 -65 218 -164 243 -54 14 -79 13 -131 -3z m156 -23 c95 -38 150 -151
124 -250 -5 -18 -11 -22 -30 -17 -22 6 -24 3 -24 -32 l0 -39 -78 0 c-65 0 -85
-5 -129 -28 l-53 -27 -41 37 c-54 49 -72 87 -73 154 -1 106 77 204 176 219 48
8 77 4 128 -17z m1418 1 c105 -52 145 -153 106 -267 -19 -56 -29 -64 -53 -43
-17 16 -19 16 -25 1 -3 -9 -6 -28 -6 -41 0 -13 -1 -24 -2 -24 -2 0 -27 9 -56
20 -56 21 -127 26 -179 11 -25 -7 -35 -6 -46 7 -53 61 -66 166 -29 238 59 114
178 154 290 98z m-1358 -355 c149 -34 251 -188 221 -336 -32 -160 -184 -265
-338 -234 -160 32 -265 184 -234 337 21 107 93 190 194 225 60 21 94 23 157 8z
m1280 0 c149 -34 251 -188 221 -336 -32 -160 -184 -265 -338 -234 -160 32
-265 184 -234 337 21 107 93 190 194 225 60 21 94 23 157 8z m-450 -309 c0
-25 7 -25 45 0 l30 19 12 -54 c16 -70 68 -152 119 -187 45 -31 115 -58 152
-58 22 0 24 -3 18 -32 -19 -95 -123 -261 -208 -330 -126 -103 -252 -150 -408
-152 -124 -1 -187 13 -295 65 -143 68 -240 164 -310 305 -33 68 -33 69 -13 77
21 7 21 8 -5 35 l-27 28 55 11 c68 15 152 68 187 119 31 44 58 115 58 150 l0
24 295 0 c288 0 295 0 295 -20z" />
                <path d="M422 1178 c-17 -17 -15 -93 2 -107 13 -11 13 -8 5 21 -5 21 -5 46 0
66 11 36 10 37 -7 20z" />
                <path d="M468 1142 c3 -34 0 -57 -8 -67 -9 -11 -9 -15 -1 -15 27 0 40 84 17
115 -12 16 -13 13 -8 -33z" />
                <path d="M316 1134 c-28 -28 -14 -74 23 -74 12 0 11 3 -3 13 -22 16 -18 60 7
65 15 3 17 -5 17 -57 0 -34 4 -61 10 -61 6 0 10 28 10 65 0 62 -1 65 -24 65
-14 0 -32 -7 -40 -16z" />
                <path d="M1583 1349 c-90 -35 -153 -126 -153 -222 0 -98 79 -209 168 -235 158
-47 322 71 322 231 0 63 -37 142 -85 185 -73 64 -157 78 -252 41z m195 -18
c56 -29 108 -93 122 -152 21 -86 -8 -170 -81 -232 -187 -161 -461 62 -349 284
25 47 92 105 138 118 50 14 123 6 170 -18z" />
                <path d="M1715 1125 c0 -45 4 -65 13 -65 8 0 12 20 12 65 0 45 -4 65 -12 65
-9 0 -13 -20 -13 -65z" />
                <path d="M1596 1134 c-28 -28 -14 -74 23 -74 12 0 11 3 -3 13 -22 16 -18 60 7
65 15 3 17 -5 17 -57 0 -34 4 -61 10 -61 6 0 10 28 10 65 0 62 -1 65 -24 65
-14 0 -32 -7 -40 -16z" />
                <path d="M1005 989 c-4 -6 -5 -12 -2 -15 2 -3 7 2 10 11 7 17 1 20 -8 4z" />
                <path d="M1036 978 c1 -13 3 -33 3 -45 1 -13 7 -23 14 -23 10 0 12 11 8 42 -6
42 -30 67 -25 26z" />
                <path d="M1000 945 c-14 -17 -5 -35 18 -35 14 0 14 2 3 9 -8 5 -11 16 -8 25 8
20 3 20 -13 1z" />
                <path d="M999 213 c-3 -32 4 -120 11 -127 16 -16 59 3 66 29 8 31 -13 58 -38
52 -14 -4 -18 1 -18 24 0 16 -4 29 -10 29 -5 0 -10 -3 -11 -7z m57 -77 c7 -29
-1 -46 -22 -46 -9 0 -14 10 -14 28 0 47 25 59 36 18z" />
        </g>
</svg>